<svg width="300" height="600" viewBox="0 0 300 600" fill="none" xmlns="http://www.w3.org/2000/svg">
  <!-- Phone Screen -->
  <rect width="300" height="600" rx="30" fill="#000"/>
  <rect x="10" y="10" width="280" height="580" rx="25" fill="white"/>
  
  <!-- Status Bar -->
  <rect x="10" y="10" width="280" height="30" fill="#FF0000"/>
  <text x="30" y="30" fill="white" font-family="Arial" font-size="12" font-weight="bold">MyGram</text>
  <text x="260" y="30" fill="white" font-family="Arial" font-size="10" text-anchor="end">100%</text>
  
  <!-- Header -->
  <rect x="10" y="40" width="280" height="50" fill="#FF0000"/>
  <text x="150" y="70" fill="white" font-family="Arial" font-size="16" font-weight="bold" text-anchor="middle">वोटिंग</text>
  
  <!-- Position Filter -->
  <rect x="20" y="100" width="260" height="40" rx="5" fill="#f5f5f5" stroke="#ddd"/>
  <text x="30" y="125" fill="#333" font-family="Arial" font-size="12">सभी पद</text>
  
  <!-- Candidate Cards -->
  <rect x="20" y="160" width="260" height="100" rx="10" fill="white" stroke="#eee"/>
  <circle cx="60" cy="190" r="20" fill="#FF0000"/>
  <text x="60" y="195" fill="white" font-family="Arial" font-size="12" text-anchor="middle">फोटो</text>
  <text x="100" y="180" fill="#333" font-family="Arial" font-size="14" font-weight="bold">राम कुमार</text>
  <text x="100" y="195" fill="#666" font-family="Arial" font-size="12">पिता: श्याम लाल</text>
  <text x="230" y="175" fill="#4CAF50" font-family="Arial" font-size="24" font-weight="bold" text-anchor="middle">15</text>
  <rect x="100" y="210" width="80" height="30" rx="5" fill="#2196F3"/>
  <text x="140" y="230" fill="white" font-family="Arial" font-size="11" text-anchor="middle">विवरण</text>
  <rect x="190" y="210" width="80" height="30" rx="5" fill="#4CAF50"/>
  <text x="230" y="230" fill="white" font-family="Arial" font-size="11" text-anchor="middle">वोट दें</text>
  
  <rect x="20" y="280" width="260" height="100" rx="10" fill="white" stroke="#eee"/>
  <circle cx="60" cy="310" r="20" fill="#FF0000"/>
  <text x="60" y="315" fill="white" font-family="Arial" font-size="12" text-anchor="middle">फोटो</text>
  <text x="100" y="300" fill="#333" font-family="Arial" font-size="14" font-weight="bold">सुरेश यादव</text>
  <text x="100" y="315" fill="#666" font-family="Arial" font-size="12">पिता: रामेश्वर</text>
  <text x="230" y="295" fill="#4CAF50" font-family="Arial" font-size="24" font-weight="bold" text-anchor="middle">8</text>
  <rect x="100" y="330" width="80" height="30" rx="5" fill="#2196F3"/>
  <text x="140" y="350" fill="white" font-family="Arial" font-size="11" text-anchor="middle">विवरण</text>
  <rect x="190" y="330" width="80" height="30" rx="5" fill="#4CAF50"/>
  <text x="230" y="350" fill="white" font-family="Arial" font-size="11" text-anchor="middle">वोट दें</text>
  
  <rect x="20" y="400" width="260" height="100" rx="10" fill="white" stroke="#eee"/>
  <circle cx="60" cy="430" r="20" fill="#FF0000"/>
  <text x="60" y="435" fill="white" font-family="Arial" font-size="12" text-anchor="middle">फोटो</text>
  <text x="100" y="420" fill="#333" font-family="Arial" font-size="14" font-weight="bold">अनिल शर्मा</text>
  <text x="100" y="435" fill="#666" font-family="Arial" font-size="12">पिता: विनोद शर्मा</text>
  <text x="230" y="415" fill="#4CAF50" font-family="Arial" font-size="24" font-weight="bold" text-anchor="middle">12</text>
  <rect x="100" y="450" width="80" height="30" rx="5" fill="#2196F3"/>
  <text x="140" y="470" fill="white" font-family="Arial" font-size="11" text-anchor="middle">विवरण</text>
  <rect x="190" y="450" width="80" height="30" rx="5" fill="#F44336"/>
  <text x="230" y="470" fill="white" font-family="Arial" font-size="10" text-anchor="middle">वोट दिया</text>
  
  <!-- Bottom Navigation -->
  <rect x="10" y="540" width="280" height="50" fill="white" stroke="#eee"/>
  <circle cx="75" cy="565" r="12" fill="#ccc"/>
  <circle cx="150" cy="565" r="12" fill="#FF0000"/>
  <circle cx="225" cy="565" r="12" fill="#ccc"/>
  <text x="75" y="570" fill="#666" font-family="Arial" font-size="8" text-anchor="middle">होम</text>
  <text x="150" y="570" fill="white" font-family="Arial" font-size="8" text-anchor="middle">वोट</text>
  <text x="225" y="570" fill="#666" font-family="Arial" font-size="8" text-anchor="middle">सेटिंग</text>
</svg>
